<svg width="114" height="114" viewBox="0 0 114 114" fill="none" xmlns="http://www.w3.org/2000/svg">
<path d="M42.9375 0.75C33.9844 0.75 26.7328 7.25156 24.9188 15.6938C13.9875 17.6438 5.4375 26.7656 5.4375 38.25C5.4375 39.4031 5.56406 40.4297 5.73281 41.475C2.70938 45.9187 0.75 51.1547 0.75 57C0.75 65.4234 4.94531 72.5109 10.8563 77.6531C10.4344 79.3219 10.125 80.9859 10.125 82.7812C10.125 94.3734 19.6266 103.875 31.2188 103.875H31.5141C34.2422 109.167 38.9672 113.25 45.2812 113.25C47.4685 113.245 49.6325 112.801 51.6454 111.946C53.6582 111.09 55.479 109.839 57 108.267C58.521 109.839 60.3418 111.09 62.3547 111.946C64.3675 112.801 66.5315 113.245 68.7188 113.25C75.0375 113.25 79.7578 109.167 82.4906 103.875H82.7812C93.7875 103.875 102.811 95.3063 103.73 84.5391H103.875C103.875 84.2438 103.748 83.9531 103.73 83.6578C103.748 83.3672 103.875 83.0719 103.875 82.7812C103.875 81.0422 103.252 79.5563 102.848 77.9484C108.928 72.7828 113.25 65.5734 113.25 57C113.25 51.1594 111.291 45.9234 108.267 41.4703C108.436 40.4297 108.562 39.4078 108.562 38.25C108.562 26.7656 100.013 17.6484 89.0813 15.6891C87.2672 7.25625 80.0156 0.75 71.0625 0.75C65.4375 0.75 60.4406 3.37031 57 7.34063C53.5594 3.375 48.5625 0.75 42.9375 0.75ZM42.9375 10.125C48.1734 10.125 52.3125 14.2641 52.3125 19.5V28.875C52.3125 36.6937 46.0687 42.9375 38.25 42.9375V52.3125C43.5609 52.3125 48.375 50.4844 52.3125 47.4797V96.8438C52.3125 100.781 49.2188 103.875 45.2812 103.875C43.6412 103.898 42.0468 103.335 40.7846 102.288C39.5224 101.24 38.6752 99.7771 38.3953 98.1609L37.5187 93.6234L32.9766 94.3547C31.3076 94.6183 29.6012 94.516 27.9757 94.0548C26.3502 93.5936 24.8444 92.7846 23.5625 91.6837C22.2806 90.5829 21.2534 89.2166 20.5519 87.6794C19.8505 86.1422 19.4915 84.4709 19.5 82.7812C19.5 81.3328 19.7344 79.9781 20.2313 78.6797C20.2688 78.5719 20.3438 78.4922 20.3766 78.3844C21.8297 74.7797 24.975 72.1406 28.875 71.3531L26.9719 62.1281C22.1878 63.0731 17.8857 65.6637 14.8125 69.45C11.7647 66.0221 10.0948 61.5868 10.125 57C10.117 52.7847 11.566 48.6961 14.2266 45.4266L15.6938 43.6688L15.2531 41.325C14.9875 40.3206 14.8396 39.2886 14.8125 38.25C14.8125 30.4312 21.0562 24.1875 28.875 24.1875H33.5625V19.5C33.5625 14.2641 37.7016 10.125 42.9375 10.125ZM71.0625 10.125C76.2984 10.125 80.4375 14.2641 80.4375 19.5V24.1875H85.125C92.9437 24.1875 99.1875 30.4312 99.1875 38.25C99.1875 39.2578 99 40.2281 98.7469 41.325L98.3109 43.6688L99.7734 45.4266C102.434 48.6961 103.883 52.7847 103.875 57C103.875 62.625 101.475 67.6406 97.575 71.0625C94.3734 68.2266 90.2906 66.375 85.7109 66.375C81.2812 66.375 77.2875 67.95 74.1375 70.6219L80.1469 77.8031C81.6933 76.4702 83.6694 75.7411 85.7109 75.75C90.2344 75.75 93.8391 79.1391 94.3547 83.5125C93.9703 89.6859 89.0437 94.5 82.7812 94.5C82.3594 94.5 81.8438 94.4813 81.0234 94.3547L76.4812 93.6188L75.6047 98.1656C75.3238 99.7809 74.4762 101.243 73.2141 102.29C71.952 103.336 70.3581 103.898 68.7188 103.875C64.7812 103.875 61.6875 100.781 61.6875 96.8438V47.4797C65.712 50.6006 70.6572 52.3001 75.75 52.3125V42.9375C67.9313 42.9375 61.6875 36.6937 61.6875 28.875V19.5C61.6875 14.2641 65.8266 10.125 71.0625 10.125Z" fill="white" fill-opacity="0.5"/>
</svg>
