<svg width="21" height="21" viewBox="0 0 21 21" fill="none" xmlns="http://www.w3.org/2000/svg">
<g clip-path="url(#clip0_167:52)">
<path d="M17.8735 5.45649C17.8735 3.10284 14.9875 0.33804 14.8646 0.221483C14.7132 0.0778594 14.4759 0.077663 14.3243 0.22113C14.2377 0.303077 12.7789 1.69681 11.9248 3.33902C10.8067 2.03713 9.93934 1.21122 9.89911 1.17311C9.74771 1.02949 9.51039 1.02929 9.35876 1.17276C9.28867 1.23907 7.62305 2.82255 5.93044 5.07468C3.6325 8.13227 2.46736 10.8209 2.46736 13.0658C2.46736 17.0146 5.67996 20.2273 9.62876 20.2273C13.5776 20.2273 16.7902 17.0147 16.7902 13.0658C16.7902 11.7418 16.3724 10.2394 15.5474 8.59449C16.8922 8.18527 17.8735 6.93331 17.8735 5.45649V5.45649ZM16.0045 13.0658C16.0045 16.5814 13.1444 19.4416 9.62876 19.4416C6.11319 19.4416 3.25309 16.5814 3.25309 13.0658C3.25309 11.0265 4.39364 8.42973 6.55141 5.55627C7.81197 3.87761 9.08683 2.55117 9.62856 2.00889C10.0058 2.38712 10.7384 3.14601 11.5714 4.13641C11.4122 4.5773 11.3151 5.02357 11.3151 5.45649C11.3151 7.26467 12.7861 8.73576 14.5943 8.73576C14.6417 8.73576 14.6889 8.73474 14.7358 8.73273C15.5778 10.352 16.0045 11.809 16.0045 13.0658ZM14.5943 7.95003C13.2194 7.95003 12.1007 6.83141 12.1007 5.45645C12.1007 3.81676 13.8985 1.78748 14.5941 1.06374C15.2899 1.7883 17.0879 3.81927 17.0879 5.45645C17.0878 6.83144 15.9692 7.95003 14.5943 7.95003V7.95003Z" fill="#51EC93"/>
<path d="M14.3354 13.1616C14.2732 13.01 14.1167 12.9109 13.953 12.9197C13.7938 12.9282 13.6522 13.0345 13.6008 13.1855C13.5479 13.3407 13.6 13.5177 13.7286 13.6194C13.8575 13.7213 14.0403 13.7319 14.1801 13.6454C14.3412 13.5457 14.4082 13.3364 14.3354 13.1616Z" fill="#51EC93"/>
<path d="M13.7644 14.7295C13.5659 14.6421 13.334 14.7321 13.2466 14.9307C12.6151 16.3645 11.195 17.2909 9.62877 17.2909C7.45017 17.2909 5.67777 15.5184 5.67777 13.3399C5.67777 11.1613 7.45017 9.38886 9.62877 9.38886C11.1709 9.38886 12.582 10.2953 13.2238 11.6983C13.314 11.8956 13.5471 11.9824 13.7444 11.8921C13.9417 11.8019 14.0285 11.5688 13.9382 11.3715C13.169 9.68982 11.4774 8.60321 9.62873 8.60321C7.0169 8.60321 4.89204 10.7281 4.89204 13.3399C4.89204 15.9517 7.0169 18.0766 9.62873 18.0766C11.5063 18.0766 13.2086 16.9661 13.9656 15.2475C14.0531 15.0489 13.963 14.817 13.7644 14.7295V14.7295Z" fill="#51EC93"/>
<path d="M11.8567 15.0109C12.0737 15.0109 12.2496 14.8351 12.2496 14.6181V12.1184C12.2496 11.9015 12.0737 11.7256 11.8567 11.7256C11.6398 11.7256 11.4639 11.9015 11.4639 12.1184V12.9326H10.5198V12.1184C10.5198 11.9015 10.3439 11.7256 10.1269 11.7256C9.90995 11.7256 9.73407 11.9015 9.73407 12.1184V14.6181C9.73407 14.8351 9.90995 15.0109 10.1269 15.0109C10.3439 15.0109 10.5198 14.8351 10.5198 14.6181V13.7183H11.4639V14.6181C11.4639 14.8351 11.6398 15.0109 11.8567 15.0109Z" fill="#51EC93"/>
<path d="M9.14517 12.7113C9.14517 12.1364 8.66103 11.6688 8.06595 11.6688H7.40169C7.40157 11.6688 7.40141 11.6688 7.40129 11.6688C7.40118 11.6688 7.40102 11.6688 7.4009 11.6688C7.18393 11.6688 7.00806 11.8446 7.00806 12.0616V14.5613C7.00806 14.7782 7.18393 14.9541 7.4009 14.9541C7.61787 14.9541 7.79375 14.7782 7.79375 14.5613V14.0667L8.45746 14.8208C8.53512 14.9091 8.64355 14.9541 8.75252 14.9541C8.84468 14.9541 8.93728 14.9219 9.01192 14.8562C9.17475 14.7128 9.19058 14.4646 9.04727 14.3017L8.49085 13.6695C8.87524 13.5098 9.14517 13.1404 9.14517 12.7113V12.7113ZM8.06595 12.4545C8.2223 12.4545 8.35948 12.5745 8.35948 12.7113C8.35948 12.848 8.2223 12.9681 8.06595 12.9681C8.00113 12.9681 7.90044 12.9684 7.79701 12.9689C7.79653 12.8694 7.79622 12.7732 7.79622 12.7113C7.79622 12.6579 7.79602 12.5592 7.79571 12.4545H8.06595V12.4545Z" fill="#51EC93"/>
<path d="M15.5612 4.57504H14.9986V4.01241C14.9986 3.79544 14.8227 3.61957 14.6057 3.61957C14.3888 3.61957 14.2129 3.79544 14.2129 4.01241V4.57504H13.6273C13.4103 4.57504 13.2344 4.75092 13.2344 4.96789C13.2344 5.18486 13.4103 5.36073 13.6273 5.36073H14.2129V5.94631C14.2129 6.16327 14.3888 6.33915 14.6057 6.33915C14.8227 6.33915 14.9986 6.16327 14.9986 5.94631V5.36073H15.5612C15.7782 5.36073 15.954 5.18486 15.954 4.96789C15.954 4.75092 15.7782 4.57504 15.5612 4.57504Z" fill="#51EC93"/>
</g>
<defs>
<clipPath id="clip0_167:52">
<rect width="20.1136" height="20.1136" fill="white" transform="translate(0.113632 0.113647)"/>
</clipPath>
</defs>
</svg>
