<svg width="30" height="30" viewBox="0 0 30 30" fill="none" xmlns="http://www.w3.org/2000/svg">
<circle cx="15" cy="15" r="14.5" stroke="#FED821"/>
<g clip-path="url(#clip0_1004:1)">
<path d="M12.4626 17.2407C12.4574 17.2156 12.45 17.1909 12.4402 17.1673C12.4303 17.1433 12.4182 17.1205 12.404 17.0993C12.3895 17.0777 12.373 17.0577 12.3549 17.0396C12.2638 16.9485 12.1282 16.9064 12.0006 16.9324C11.9754 16.9375 11.9507 16.9449 11.9271 16.9548C11.9031 16.9646 11.8804 16.9768 11.8591 16.9909C11.8375 17.005 11.8175 17.0215 11.7994 17.0396C11.7814 17.0577 11.7649 17.0777 11.7507 17.0993C11.7366 17.1205 11.7244 17.1433 11.7146 17.1673C11.7048 17.1909 11.6973 17.2156 11.6922 17.2407C11.6871 17.2659 11.6843 17.2918 11.6843 17.3173C11.6843 17.3429 11.6871 17.3688 11.6922 17.3943C11.6973 17.4191 11.7048 17.4438 11.7146 17.4678C11.7244 17.4914 11.7366 17.5142 11.7507 17.5354C11.7649 17.557 11.7814 17.577 11.7994 17.5951C11.8175 17.6132 11.8375 17.6297 11.8591 17.6442C11.8804 17.6583 11.9031 17.6705 11.9271 17.6803C11.9507 17.6902 11.9754 17.6976 12.0006 17.7027C12.0257 17.7078 12.0516 17.7102 12.0772 17.7102C12.1805 17.7102 12.2818 17.6682 12.3549 17.5951C12.373 17.577 12.3895 17.557 12.404 17.5354C12.4182 17.5142 12.4303 17.4914 12.4402 17.4678C12.45 17.4438 12.4574 17.4191 12.4626 17.3943C12.4677 17.3688 12.47 17.3429 12.47 17.3173C12.47 17.2918 12.4677 17.2659 12.4626 17.2407Z" fill="#FED821"/>
<path d="M24.8344 24.0246H24.0207V19.8233V18.1005C24.0207 17.4521 23.4932 16.9246 22.8447 16.9246H22.1739V14.5478V13.0495C22.1739 12.4012 21.6464 11.8736 20.9979 11.8736H19.792V10.733C20.0615 10.665 20.3166 10.526 20.527 10.3156C21.0106 9.83203 21.1322 9.09509 20.8295 8.48174L19.7514 6.29773C19.6852 6.16365 19.5487 6.07875 19.3991 6.07875C19.2496 6.07875 19.1131 6.16365 19.0469 6.29773L17.9688 8.48178C17.6661 9.09505 17.7877 9.83203 18.2713 10.3157C18.4817 10.5261 18.7368 10.665 19.0063 10.7331V11.8736H15.5633V10.1849C15.8328 10.1168 16.0879 9.97789 16.2983 9.76748C16.7819 9.28389 16.9034 8.54696 16.6008 7.93361L15.5227 5.74955C15.4565 5.61547 15.32 5.53058 15.1705 5.53058C15.0209 5.53058 14.8844 5.61547 14.8182 5.74955L13.7401 7.93365C13.4375 8.54696 13.559 9.28389 14.0426 9.76748C14.253 9.97789 14.5081 10.1168 14.7776 10.1849V11.8736H11.3346V10.7343C11.6104 10.6647 11.8633 10.522 12.0696 10.3157C12.5532 9.83207 12.6748 9.09509 12.3721 8.48178L11.294 6.29773C11.2278 6.16365 11.0913 6.07875 10.9418 6.07875C10.7922 6.07875 10.6557 6.16365 10.5895 6.29773L9.51145 8.48182C9.20876 9.09509 9.33031 9.83207 9.8139 10.3157C10.0202 10.522 10.2731 10.6648 10.5489 10.7343V11.8737H9.34296C8.69453 11.8737 8.16702 12.4012 8.16702 13.0496V14.5479V16.9246H7.49616C6.84773 16.9246 6.32021 17.4521 6.32021 18.1006V19.8234V24.0246H5.50648C5.28951 24.0246 5.11363 24.2005 5.11363 24.4175C5.11363 24.6344 5.28951 24.8103 5.50648 24.8103H6.71306H23.6278H24.8344C25.0514 24.8103 25.2273 24.6344 25.2273 24.4175C25.2273 24.2005 25.0514 24.0246 24.8344 24.0246ZM18.8269 9.76002C18.5814 9.51465 18.5198 9.1407 18.6734 8.82949L19.3992 7.35911L20.125 8.82949C20.2786 9.1407 20.2169 9.51465 19.9715 9.76002C19.917 9.81451 19.8563 9.85894 19.7921 9.89461C19.5485 10.0298 19.25 10.0298 19.0064 9.89461C18.942 9.85898 18.8813 9.81455 18.8269 9.76002ZM14.5982 9.21188C14.3528 8.96651 14.2911 8.59257 14.4447 8.28135L15.1705 6.81102L15.8962 8.28139C16.0498 8.5926 15.9882 8.96655 15.7428 9.21192C15.6883 9.26641 15.6276 9.31084 15.5633 9.34651C15.3198 9.48173 15.0212 9.48173 14.7776 9.34651C14.7133 9.3108 14.6526 9.26641 14.5982 9.21188ZM10.3695 9.76002C10.124 9.51465 10.0624 9.1407 10.216 8.82949L10.9418 7.35911L11.6676 8.82949C11.8212 9.14066 11.7595 9.51461 11.5141 9.76002C11.4596 9.81451 11.3989 9.85894 11.3347 9.89461C11.0911 10.0298 10.7926 10.0298 10.549 9.89461C10.4846 9.85898 10.4239 9.81455 10.3695 9.76002ZM9.34296 12.6593H20.998C21.2132 12.6593 21.3882 12.8343 21.3882 13.0495V14.2829C21.2151 14.3373 21.0287 14.3623 20.8086 14.3623C20.2227 14.3623 19.9553 14.1841 19.6169 13.9584C19.2401 13.7072 18.8131 13.4226 17.9893 13.4226C17.1656 13.4226 16.7386 13.7072 16.3618 13.9584C16.0234 14.1841 15.756 14.3623 15.1702 14.3623C14.5843 14.3623 14.317 14.1841 13.9786 13.9584C13.6018 13.7073 13.1748 13.4226 12.3511 13.4226C11.5274 13.4226 11.1005 13.7073 10.7237 13.9584C10.3853 14.1841 10.118 14.3623 9.53219 14.3623C9.3122 14.3623 9.12579 14.3372 8.95274 14.283V13.0495H8.9527C8.9527 12.8343 9.1278 12.6593 9.34296 12.6593ZM23.235 24.0246H7.1059V20.249C7.4399 20.3104 7.65266 20.452 7.90467 20.62C8.28141 20.8712 8.70839 21.1558 9.53215 21.1558C10.3558 21.1558 10.7828 20.8712 11.1595 20.62C11.498 20.3944 11.7653 20.2161 12.3511 20.2161C12.9369 20.2161 13.2043 20.3944 13.5427 20.62C13.9194 20.8712 14.3464 21.1558 15.1701 21.1558C15.9939 21.1558 16.4209 20.8712 16.7976 20.62C17.1361 20.3944 17.4034 20.2161 17.9893 20.2161C18.5752 20.2161 18.8425 20.3944 19.181 20.62C19.5578 20.8712 19.9848 21.1558 20.8086 21.1558C21.6323 21.1558 22.0593 20.8712 22.4361 20.62C22.6882 20.452 22.901 20.3104 23.235 20.2489V24.0246ZM23.235 19.4542C22.6582 19.5277 22.312 19.7584 22.0003 19.9662C21.6618 20.1919 21.3944 20.3701 20.8086 20.3701C20.2227 20.3701 19.9553 20.1919 19.6168 19.9662C19.24 19.7151 18.813 19.4304 17.9893 19.4304C17.1656 19.4304 16.7385 19.7151 16.3618 19.9662C16.0233 20.1919 15.756 20.3701 15.1701 20.3701C14.5843 20.3701 14.317 20.1919 13.9785 19.9662C13.6018 19.7151 13.1748 19.4304 12.351 19.4304C11.5274 19.4304 11.1004 19.7151 10.7236 19.9662C10.3852 20.1919 10.1179 20.3701 9.53211 20.3701C8.94626 20.3701 8.67893 20.1919 8.3405 19.9662C8.02877 19.7584 7.68268 19.5277 7.1059 19.4542V18.1005C7.1059 17.8853 7.28099 17.7102 7.49616 17.7102H10.511C10.728 17.7102 10.9039 17.5343 10.9039 17.3174C10.9039 17.1004 10.728 16.9245 10.511 16.9245H8.9527V15.0926C9.13349 15.1296 9.32449 15.148 9.53215 15.148C10.3558 15.148 10.7828 14.8633 11.1595 14.6122C11.498 14.3865 11.7653 14.2083 12.3511 14.2083C12.9369 14.2083 13.2043 14.3865 13.5427 14.6122C13.9194 14.8633 14.3464 15.148 15.1701 15.148C15.9939 15.148 16.4209 14.8633 16.7976 14.6122C17.1361 14.3865 17.4034 14.2083 17.9893 14.2083C18.5752 14.2083 18.8425 14.3865 19.181 14.6122C19.5578 14.8634 19.9848 15.148 20.8086 15.148C21.0163 15.148 21.2074 15.1296 21.3882 15.0926V16.9246H13.6434C13.4265 16.9246 13.2506 17.1004 13.2506 17.3174C13.2506 17.5344 13.4265 17.7102 13.6434 17.7102H22.8447C23.0599 17.7102 23.235 17.8853 23.235 18.1005V19.4542Z" fill="#FED821"/>
<path d="M8.94504 23.0486C8.93993 23.0234 8.93247 22.9987 8.92265 22.9751C8.91282 22.9515 8.90065 22.9288 8.8865 22.9072C8.87197 22.8859 8.85586 22.8659 8.8374 22.8474C8.81933 22.8294 8.79929 22.8133 8.77769 22.7987C8.75647 22.7846 8.73369 22.7724 8.71012 22.7626C8.68655 22.7528 8.6618 22.7453 8.63665 22.7402C8.50898 22.7147 8.37345 22.7563 8.28192 22.8474C8.26385 22.8659 8.24735 22.8859 8.2332 22.9072C8.21906 22.9288 8.20688 22.9515 8.19706 22.9751C8.18724 22.9987 8.17978 23.0234 8.17467 23.0486C8.16956 23.0741 8.16721 23.0996 8.16721 23.1256C8.16721 23.1511 8.16956 23.1766 8.17467 23.2022C8.17978 23.2273 8.18724 23.2521 8.19706 23.2756C8.20688 23.2992 8.21906 23.322 8.2332 23.3436C8.24735 23.3648 8.26385 23.3849 8.28192 23.4033C8.35499 23.4764 8.45634 23.5184 8.56005 23.5184C8.58559 23.5184 8.61112 23.5157 8.63665 23.5106C8.6618 23.5055 8.68655 23.498 8.71012 23.4882C8.73369 23.4784 8.75647 23.4662 8.77769 23.452C8.79929 23.4375 8.81933 23.4214 8.8374 23.4033C8.85586 23.3849 8.87197 23.3648 8.8865 23.3436C8.90065 23.322 8.91282 23.2992 8.92265 23.2756C8.93247 23.2521 8.93993 23.2273 8.94504 23.2022C8.95014 23.1766 8.95289 23.1511 8.95289 23.1256C8.95289 23.0996 8.95014 23.0742 8.94504 23.0486Z" fill="#FED821"/>
<path d="M13.1673 21.8739C13.1622 21.8488 13.1548 21.824 13.1449 21.8004C13.1351 21.7769 13.1229 21.7541 13.1088 21.7325C13.0943 21.7113 13.0778 21.6908 13.0597 21.6728C13.0416 21.6547 13.0216 21.6382 13 21.6241C12.9788 21.6099 12.956 21.5977 12.9324 21.5879C12.9085 21.5781 12.8837 21.5706 12.859 21.5655C12.8083 21.5553 12.756 21.5553 12.7054 21.5655C12.6802 21.5706 12.6555 21.5781 12.6319 21.5879C12.6079 21.5977 12.5851 21.6099 12.5639 21.6241C12.5423 21.6382 12.5223 21.6547 12.5042 21.6728C12.4861 21.6908 12.4696 21.7113 12.4555 21.7325C12.4414 21.7541 12.4292 21.7769 12.4194 21.8004C12.4095 21.824 12.4021 21.8488 12.397 21.8739C12.3919 21.8994 12.3891 21.925 12.3891 21.9505C12.3891 21.9764 12.3919 22.002 12.397 22.0275C12.4021 22.0526 12.4095 22.0774 12.4194 22.101C12.4292 22.1245 12.4414 22.1473 12.4555 22.1689C12.4696 22.1901 12.4861 22.2106 12.5042 22.2286C12.5223 22.2467 12.5423 22.2628 12.5639 22.2774C12.5851 22.2915 12.6079 22.3037 12.6319 22.3135C12.6555 22.3233 12.6802 22.3308 12.7054 22.3359C12.7305 22.341 12.7564 22.3437 12.782 22.3437C12.8075 22.3437 12.8334 22.341 12.859 22.3359C12.8837 22.3308 12.9085 22.3233 12.9324 22.3135C12.956 22.3037 12.9788 22.2915 13 22.2774C13.0216 22.2628 13.0416 22.2467 13.0597 22.2286C13.0778 22.2106 13.0943 22.1901 13.1088 22.1689C13.1229 22.1473 13.1351 22.1245 13.1449 22.101C13.1548 22.0774 13.1622 22.0526 13.1673 22.0275C13.1724 22.002 13.1748 21.9764 13.1748 21.9505C13.1748 21.925 13.1724 21.8994 13.1673 21.8739Z" fill="#FED821"/>
<path d="M17.709 23.0486C17.7039 23.0234 17.6964 22.9987 17.6866 22.9751C17.6768 22.9516 17.6646 22.9288 17.6505 22.9072C17.6363 22.8859 17.6198 22.8659 17.6018 22.8475C17.5837 22.8294 17.5637 22.8133 17.5421 22.7987C17.5208 22.7846 17.4981 22.7724 17.4741 22.7626C17.4505 22.7528 17.4258 22.7453 17.4006 22.7402C17.35 22.73 17.2977 22.73 17.247 22.7402C17.2223 22.7453 17.1975 22.7528 17.1736 22.7626C17.15 22.7724 17.1272 22.7846 17.106 22.7987C17.0844 22.8133 17.0644 22.8294 17.0463 22.8475C17.0282 22.8659 17.0117 22.8859 16.9972 22.9072C16.983 22.9288 16.9709 22.9516 16.961 22.9751C16.9512 22.9987 16.9438 23.0234 16.9386 23.0486C16.9335 23.0741 16.9312 23.0997 16.9312 23.1256C16.9312 23.1511 16.9335 23.1767 16.9386 23.2022C16.9438 23.2273 16.9512 23.2521 16.961 23.2757C16.9709 23.2992 16.983 23.322 16.9972 23.3436C17.0117 23.3648 17.0282 23.3853 17.0463 23.4033C17.0644 23.4214 17.0844 23.4379 17.106 23.452C17.1272 23.4662 17.15 23.4784 17.1736 23.4882C17.1975 23.498 17.2223 23.5055 17.247 23.5106C17.2726 23.5157 17.2985 23.5184 17.324 23.5184C17.4273 23.5184 17.5287 23.4764 17.6018 23.4033C17.6198 23.3853 17.6363 23.3648 17.6505 23.3436C17.6646 23.322 17.6768 23.2992 17.6866 23.2757C17.6964 23.2521 17.7039 23.2273 17.709 23.2022C17.7141 23.1767 17.7169 23.1511 17.7169 23.1256C17.7169 23.0997 17.7141 23.0741 17.709 23.0486Z" fill="#FED821"/>
<path d="M22.1662 22.1088C22.1611 22.0837 22.1537 22.059 22.1438 22.0354C22.134 22.0118 22.1218 21.9886 22.1077 21.9674C22.0936 21.9462 22.0771 21.9258 22.059 21.9077C21.9855 21.8346 21.8846 21.7926 21.7812 21.7926C21.6775 21.7926 21.5766 21.8346 21.5031 21.9077C21.485 21.9258 21.4689 21.9462 21.4544 21.9674C21.4403 21.9886 21.4281 22.0118 21.4183 22.0354C21.4084 22.059 21.401 22.0837 21.3959 22.1088C21.3908 22.134 21.3884 22.1599 21.3884 22.1854C21.3884 22.2114 21.3908 22.2369 21.3959 22.2624C21.401 22.2876 21.4084 22.3123 21.4183 22.3359C21.4281 22.3595 21.4403 22.3823 21.4544 22.4035C21.4689 22.4251 21.485 22.4451 21.5031 22.4636C21.5216 22.4817 21.5416 22.4978 21.5628 22.5123C21.5844 22.5264 21.6072 22.5386 21.6308 22.5484C21.6544 22.5583 21.6791 22.5657 21.7042 22.5708C21.7298 22.5759 21.7553 22.5783 21.7812 22.5783C21.8846 22.5783 21.9859 22.5366 22.059 22.4636C22.0771 22.4451 22.0936 22.4251 22.1077 22.4035C22.1218 22.3823 22.134 22.3595 22.1438 22.3359C22.1537 22.3119 22.1611 22.2876 22.1662 22.2624C22.1713 22.2369 22.1741 22.2114 22.1741 22.1854C22.1741 22.1599 22.1713 22.134 22.1662 22.1088Z" fill="#FED821"/>
<path d="M18.2574 15.6874C18.2523 15.6627 18.2449 15.6379 18.235 15.614C18.2252 15.5904 18.213 15.5676 18.1989 15.5464C18.1844 15.5248 18.1679 15.5048 18.1498 15.4867C18.1317 15.4682 18.1117 15.4521 18.0901 15.4376C18.0689 15.4235 18.0461 15.4113 18.0225 15.4015C17.9985 15.3916 17.9738 15.3842 17.949 15.3791C17.8984 15.3688 17.8461 15.3688 17.7954 15.3791C17.7703 15.3842 17.7456 15.3916 17.722 15.4015C17.698 15.4113 17.6752 15.4235 17.654 15.4376C17.6324 15.4521 17.6124 15.4682 17.5943 15.4867C17.5762 15.5048 17.5597 15.5248 17.5456 15.5464C17.5315 15.5676 17.5193 15.5904 17.5095 15.614C17.4996 15.6379 17.4922 15.6627 17.4871 15.6874C17.482 15.713 17.4792 15.7389 17.4792 15.7644C17.4792 15.79 17.482 15.8159 17.4871 15.841C17.4922 15.8662 17.4996 15.8909 17.5095 15.9145C17.5193 15.9381 17.5315 15.9613 17.5456 15.9825C17.5597 16.0041 17.5762 16.0241 17.5943 16.0422C17.6124 16.0602 17.6324 16.0767 17.654 16.0909C17.6752 16.105 17.698 16.1172 17.722 16.127C17.7456 16.1369 17.7703 16.1443 17.7954 16.1494C17.8206 16.1545 17.8465 16.1573 17.872 16.1573C17.8976 16.1573 17.9235 16.1545 17.949 16.1494C17.9738 16.1443 17.9985 16.1369 18.0225 16.127C18.0461 16.1172 18.0689 16.105 18.0901 16.0909C18.1117 16.0767 18.1317 16.0602 18.1498 16.0422C18.1679 16.0241 18.1844 16.0041 18.1989 15.9825C18.213 15.9613 18.2252 15.9381 18.235 15.9145C18.2449 15.8909 18.2523 15.8662 18.2574 15.841C18.2625 15.8159 18.2649 15.79 18.2649 15.7644C18.2649 15.7389 18.2625 15.713 18.2574 15.6874Z" fill="#FED821"/>
<path d="M13.1281 15.1524C13.1229 15.1273 13.1155 15.1025 13.1057 15.0789C13.0958 15.0554 13.0837 15.0326 13.0695 15.011C13.0554 14.9898 13.0389 14.9693 13.0208 14.9513C13.0027 14.9332 12.9823 14.9167 12.9611 14.9026C12.9395 14.8884 12.9167 14.8762 12.8931 14.8664C12.8696 14.8566 12.8448 14.8491 12.8197 14.844C12.769 14.8338 12.7167 14.8338 12.6661 14.844C12.6409 14.8491 12.6162 14.8566 12.5926 14.8664C12.569 14.8762 12.5462 14.8884 12.5246 14.9026C12.5034 14.9167 12.4834 14.9332 12.4649 14.9513C12.4469 14.9693 12.4308 14.9898 12.4162 15.011C12.4021 15.0326 12.3899 15.0554 12.3801 15.0789C12.3703 15.1025 12.3628 15.1273 12.3577 15.1524C12.3526 15.1779 12.3502 15.2035 12.3502 15.2294C12.3502 15.2549 12.3526 15.2805 12.3577 15.306C12.3628 15.3312 12.3703 15.3559 12.3801 15.3795C12.3899 15.403 12.4021 15.4258 12.4162 15.4474C12.4308 15.4686 12.4469 15.4887 12.4649 15.5071C12.4834 15.5252 12.5034 15.5413 12.5246 15.5559C12.5462 15.57 12.569 15.5822 12.5926 15.592C12.6162 15.6018 12.6409 15.6093 12.6661 15.6144C12.6916 15.6195 12.7171 15.6222 12.7431 15.6222C12.7686 15.6222 12.7945 15.6195 12.8197 15.6144C12.8448 15.6093 12.8696 15.6018 12.8931 15.592C12.9167 15.5822 12.9395 15.57 12.9611 15.5559C12.9823 15.5413 13.0027 15.5252 13.0208 15.5071C13.0389 15.4887 13.055 15.4686 13.0695 15.4474C13.0837 15.4258 13.0958 15.403 13.1057 15.3795C13.1155 15.3559 13.1229 15.3312 13.1281 15.306C13.1332 15.2805 13.1355 15.2549 13.1355 15.2294C13.1355 15.2034 13.1332 15.1779 13.1281 15.1524Z" fill="#FED821"/>
</g>
<defs>
<clipPath id="clip0_1004:1">
<rect width="20.1136" height="20.1136" fill="white" transform="translate(5.11363 5.11365)"/>
</clipPath>
</defs>
</svg>
