<svg width="30" height="30" viewBox="0 0 30 30" fill="none" xmlns="http://www.w3.org/2000/svg">
<circle cx="15" cy="15" r="14.5" stroke="#6936FF"/>
<g clip-path="url(#clip0_1004:6)">
<path d="M15.1705 7.60034C15.1704 7.60034 15.1704 7.60034 15.1705 7.60034C12.636 7.60034 10.2582 8.72925 8.4749 10.7791C8.28166 11.0012 8.28166 11.3318 8.4749 11.5539L11.691 15.2507C11.8031 15.3796 11.9655 15.4535 12.1363 15.4535H18.2047C18.3755 15.4535 18.5379 15.3796 18.65 15.2507L21.8661 11.5539C22.0593 11.3318 22.0593 11.0012 21.8661 10.7791C20.0827 8.72925 17.7048 7.60038 15.1705 7.60034ZM14.8236 14.2731L15.1704 13.5219L15.5172 14.2731H14.8236ZM17.9358 14.2731H16.8174L15.7063 11.8664C15.6098 11.6574 15.4007 11.5236 15.1704 11.5236C14.9402 11.5236 14.731 11.6574 14.6345 11.8664L13.5234 14.2731H12.4051L9.71194 11.1774C10.0484 10.8319 10.4054 10.5216 10.7795 10.2476L11.2876 10.8571C11.4044 10.9972 11.5722 11.0694 11.7413 11.0694C11.8745 11.0694 12.0086 11.0245 12.1189 10.9325C12.3693 10.7238 12.403 10.3516 12.1943 10.1013L11.7909 9.61731C12.665 9.16114 13.6062 8.88472 14.5802 8.80512V9.53204C14.5802 9.85801 14.8445 10.1223 15.1704 10.1223C15.4964 10.1223 15.7607 9.85801 15.7607 9.53204V8.80512C16.7346 8.88472 17.6759 9.16114 18.55 9.61731L18.1465 10.1013C17.9378 10.3516 17.9716 10.7238 18.2219 10.9325C18.3323 11.0245 18.4663 11.0694 18.5996 11.0694C18.7687 11.0694 18.9365 10.9972 19.0532 10.8571L19.5614 10.2476C19.9354 10.5216 20.2924 10.8319 20.6289 11.1774L17.9358 14.2731Z" fill="#6936FF"/>
<path d="M23.4482 6.5398C22.6312 5.63344 21.4628 5.11365 20.2425 5.11365H10.0984C8.87821 5.11365 7.70979 5.63344 6.89275 6.53976C6.07572 7.44608 5.67948 8.66199 5.80555 9.8757L6.99868 21.3574C7.22793 23.5636 9.07345 25.2273 11.2915 25.2273H19.0494C21.2675 25.2273 23.113 23.5636 23.3423 21.3574L24.5354 9.87574C24.6615 8.66203 24.2652 7.44612 23.4482 6.5398ZM23.3612 9.75368L22.1681 21.2354C22.0016 22.8382 20.6608 24.0468 19.0494 24.0468H15.7607V20.5067C15.7607 20.1807 15.4964 19.9164 15.1705 19.9164C14.8445 19.9164 14.5803 20.1807 14.5803 20.5067V24.0468H11.2915C9.68013 24.0468 8.33937 22.8382 8.1728 21.2354L6.97971 9.75368C6.88807 8.87191 7.17595 7.98861 7.76952 7.33016C8.36309 6.67173 9.21192 6.29411 10.0984 6.29411H20.2425C21.129 6.29411 21.9779 6.67173 22.5714 7.33019C23.165 7.98861 23.4529 8.87195 23.3612 9.75368Z" fill="#6936FF"/>
</g>
<defs>
<clipPath id="clip0_1004:6">
<rect width="20.1136" height="20.1136" fill="white" transform="translate(5.11365 5.11365)"/>
</clipPath>
</defs>
</svg>
