<svg width="30" height="30" viewBox="0 0 30 30" fill="none" xmlns="http://www.w3.org/2000/svg">
<circle cx="15" cy="15" r="14.5" stroke="#58CBFC"/>
<g clip-path="url(#clip0_1004:4)">
<path d="M9.47159 13.4943V16.1761C9.47114 16.6208 9.64759 17.0473 9.96203 17.3618C10.2765 17.6762 10.703 17.8527 11.1477 17.8522C11.5116 17.851 11.865 17.7301 12.1534 17.5083V23.5511C12.1513 24.2741 12.6144 24.9164 13.301 25.1429C13.9876 25.3694 14.7419 25.1287 15.1705 24.5464C15.2181 24.6141 15.2705 24.6782 15.3273 24.7385C15.8071 25.2173 16.528 25.36 17.154 25.1001C17.78 24.8402 18.1879 24.2289 18.1875 23.5511V17.5086C18.6926 17.8955 19.3739 17.9613 19.9437 17.6781C20.5135 17.395 20.8726 16.8123 20.8693 16.1761V13.4943C20.8675 11.8288 19.5178 10.4791 17.8523 10.4772H17.0625C18.0592 9.67478 18.4413 8.33088 18.0159 7.12408C17.5904 5.91728 16.45 5.11011 15.1705 5.11011C13.8909 5.11011 12.7505 5.91728 12.325 7.12408C11.8996 8.33088 12.2817 9.67478 13.2784 10.4772H12.4886C10.8231 10.4791 9.47344 11.8288 9.47159 13.4943ZM12.8239 8.13063C12.8239 6.83464 13.8745 5.78404 15.1705 5.78404C16.4664 5.78404 17.517 6.83464 17.517 8.13063C17.517 9.42662 16.4664 10.4772 15.1705 10.4772C13.8751 10.4757 12.8253 9.426 12.8239 8.13063ZM17.8523 11.1477C19.1476 11.1492 20.1974 12.1989 20.1989 13.4943V16.1761C20.1989 16.7315 19.7486 17.1818 19.1932 17.1818C18.6378 17.1818 18.1875 16.7315 18.1875 16.1761V13.4943C18.1875 13.3091 18.0374 13.159 17.8523 13.159C17.6671 13.159 17.517 13.3091 17.517 13.4943V23.5511C17.517 24.1065 17.0668 24.5568 16.5114 24.5568C15.9559 24.5568 15.5057 24.1065 15.5057 23.5511V19.1931C15.5057 19.008 15.3556 18.8579 15.1705 18.8579C14.9853 18.8579 14.8352 19.008 14.8352 19.1931V23.5511C14.8352 23.9104 14.6435 24.2424 14.3324 24.422C14.0212 24.6017 13.6379 24.6017 13.3267 24.422C13.0155 24.2424 12.8239 23.9104 12.8239 23.5511V13.4943C12.8239 13.3091 12.6738 13.159 12.4886 13.159C12.3035 13.159 12.1534 13.3091 12.1534 13.4943V16.1761C12.1534 16.7315 11.7031 17.1818 11.1477 17.1818C10.5923 17.1818 10.142 16.7315 10.142 16.1761V13.4943C10.1435 12.1989 11.1933 11.1492 12.4886 11.1477H17.8523Z" fill="#58CBFC"/>
<path d="M5.78407 25.2273H8.13066C8.50094 25.2273 8.80112 24.9271 8.80112 24.5568V5.7841C8.80112 5.41382 8.50094 5.11365 8.13066 5.11365H5.78407C5.41379 5.11365 5.11362 5.41382 5.11362 5.7841V24.5568C5.11362 24.9271 5.41379 25.2273 5.78407 25.2273ZM8.13066 5.7841V24.5568H5.78407V23.5511H6.78975C6.97489 23.5511 7.12498 23.4011 7.12498 23.2159C7.12498 23.0308 6.97489 22.8807 6.78975 22.8807H5.78407V22.2102H6.45453C6.63967 22.2102 6.78975 22.0602 6.78975 21.875C6.78975 21.6899 6.63967 21.5398 6.45453 21.5398H5.78407V20.8693H6.78975C6.97489 20.8693 7.12498 20.7192 7.12498 20.5341C7.12498 20.349 6.97489 20.1989 6.78975 20.1989H5.78407V19.5284H6.45453C6.63967 19.5284 6.78975 19.3783 6.78975 19.1932C6.78975 19.0081 6.63967 18.858 6.45453 18.858H5.78407V18.1875H6.78975C6.97489 18.1875 7.12498 18.0374 7.12498 17.8523C7.12498 17.6671 6.97489 17.5171 6.78975 17.5171H5.78407V16.8466H6.45453C6.63967 16.8466 6.78975 16.6965 6.78975 16.5114C6.78975 16.3262 6.63967 16.1761 6.45453 16.1761H5.78407V15.5057H6.78975C6.97489 15.5057 7.12498 15.3556 7.12498 15.1705C7.12498 14.9853 6.97489 14.8352 6.78975 14.8352H5.78407V14.1648H6.45453C6.63967 14.1648 6.78975 14.0147 6.78975 13.8296C6.78975 13.6444 6.63967 13.4943 6.45453 13.4943H5.78407V12.8239H6.78975C6.97489 12.8239 7.12498 12.6738 7.12498 12.4886C7.12498 12.3035 6.97489 12.1534 6.78975 12.1534H5.78407V11.483H6.45453C6.63967 11.483 6.78975 11.3329 6.78975 11.1477C6.78975 10.9626 6.63967 10.8125 6.45453 10.8125H5.78407V10.1421H6.78975C6.97489 10.1421 7.12498 9.99197 7.12498 9.80683C7.12498 9.62169 6.97489 9.4716 6.78975 9.4716H5.78407V8.80115H6.45453C6.63967 8.80115 6.78975 8.65106 6.78975 8.46592C6.78975 8.28078 6.63967 8.13069 6.45453 8.13069H5.78407V7.46024H6.78975C6.97489 7.46024 7.12498 7.31015 7.12498 7.12501C7.12498 6.93987 6.97489 6.78978 6.78975 6.78978H5.78407V5.7841H8.13066Z" fill="#58CBFC"/>
<path d="M24.4897 8.46581C24.7757 8.47101 25.0386 8.30919 25.1628 8.05147C25.2755 7.81419 25.2392 7.53298 25.07 7.33207L23.4609 5.38172C23.3119 5.21886 23.1013 5.1261 22.8806 5.1261C22.6599 5.1261 22.4493 5.21886 22.3003 5.38172L20.6912 7.33207C20.522 7.53298 20.4857 7.81419 20.5984 8.05147C20.7226 8.30919 20.9855 8.47101 21.2715 8.46581H21.5397V21.8749H21.2715C20.9855 21.8697 20.7226 22.0315 20.5984 22.2892C20.4857 22.5265 20.522 22.8077 20.6912 23.0086L22.3003 24.959C22.4451 25.1291 22.6572 25.2271 22.8806 25.2271C23.104 25.2271 23.3161 25.1291 23.4609 24.959L25.07 23.0086C25.2392 22.8077 25.2755 22.5265 25.1628 22.2892C25.0386 22.0315 24.7757 21.8697 24.4897 21.8749H24.2215V8.46581H24.4897ZM23.8863 22.5454H24.4897C24.5413 22.5454 24.5567 22.5728 24.5527 22.5819L22.9436 24.5323C22.9272 24.5496 22.9044 24.5594 22.8806 24.5594C22.8568 24.5594 22.834 24.5496 22.8176 24.5323L21.2045 22.5789C21.2045 22.5735 21.2206 22.5454 21.2715 22.5454H21.8749C22.0601 22.5454 22.2102 22.3953 22.2102 22.2101V8.13059C22.2102 7.94544 22.0601 7.79536 21.8749 7.79536H21.2715C21.2199 7.79536 21.2045 7.76787 21.2085 7.75882L22.8176 5.80847C22.834 5.79116 22.8568 5.78136 22.8806 5.78136C22.9044 5.78136 22.9272 5.79116 22.9436 5.80847L24.5567 7.76184C24.5567 7.7672 24.5407 7.79536 24.4897 7.79536H23.8863C23.7012 7.79536 23.5511 7.94544 23.5511 8.13059V22.2101C23.5511 22.3953 23.7012 22.5454 23.8863 22.5454Z" fill="#58CBFC"/>
</g>
<defs>
<clipPath id="clip0_1004:4">
<rect width="20.1136" height="20.1136" fill="white" transform="translate(5.11363 5.11365)"/>
</clipPath>
</defs>
</svg>
