<svg width="30" height="30" viewBox="0 0 30 30" fill="none" xmlns="http://www.w3.org/2000/svg">
<circle cx="15" cy="15" r="14.5" stroke="#51EC93"/>
<g clip-path="url(#clip0_1004:3)">
<path d="M22.8735 10.4565C22.8735 8.10284 19.9875 5.33804 19.8646 5.22148C19.7132 5.07786 19.4759 5.07766 19.3243 5.22113C19.2377 5.30308 17.7789 6.69681 16.9248 8.33902C15.8067 7.03713 14.9393 6.21122 14.8991 6.17311C14.7477 6.02949 14.5104 6.02929 14.3588 6.17276C14.2887 6.23907 12.6231 7.82255 10.9304 10.0747C8.6325 13.1323 7.46736 15.8209 7.46736 18.0658C7.46736 22.0146 10.68 25.2273 14.6288 25.2273C18.5776 25.2273 21.7902 22.0147 21.7902 18.0658C21.7902 16.7418 21.3724 15.2394 20.5474 13.5945C21.8922 13.1853 22.8735 11.9333 22.8735 10.4565ZM21.0045 18.0658C21.0045 21.5814 18.1444 24.4416 14.6288 24.4416C11.1132 24.4416 8.25309 21.5814 8.25309 18.0658C8.25309 16.0265 9.39364 13.4297 11.5514 10.5563C12.812 8.87761 14.0868 7.55117 14.6286 7.00889C15.0058 7.38712 15.7384 8.14601 16.5714 9.13641C16.4122 9.5773 16.3151 10.0236 16.3151 10.4565C16.3151 12.2647 17.7861 13.7358 19.5943 13.7358C19.6417 13.7358 19.6889 13.7347 19.7358 13.7327C20.5778 15.352 21.0045 16.809 21.0045 18.0658ZM19.5943 12.95C18.2194 12.95 17.1007 11.8314 17.1007 10.4564C17.1007 8.81676 18.8985 6.78748 19.5941 6.06374C20.2899 6.7883 22.0879 8.81927 22.0879 10.4564C22.0878 11.8314 20.9692 12.95 19.5943 12.95Z" fill="#51EC93"/>
<path d="M19.3354 18.1616C19.2732 18.01 19.1167 17.9109 18.953 17.9197C18.7938 17.9282 18.6522 18.0345 18.6008 18.1855C18.5479 18.3407 18.6 18.5177 18.7286 18.6194C18.8575 18.7213 19.0403 18.7319 19.1801 18.6454C19.3412 18.5457 19.4082 18.3364 19.3354 18.1616Z" fill="#51EC93"/>
<path d="M18.7644 19.7295C18.5659 19.6421 18.334 19.7321 18.2466 19.9307C17.6151 21.3645 16.195 22.2909 14.6288 22.2909C12.4502 22.2909 10.6778 20.5184 10.6778 18.3399C10.6778 16.1613 12.4502 14.3889 14.6288 14.3889C16.1709 14.3889 17.582 15.2953 18.2238 16.6983C18.314 16.8956 18.5471 16.9824 18.7444 16.8921C18.9417 16.8019 19.0285 16.5688 18.9382 16.3715C18.169 14.6898 16.4774 13.6032 14.6287 13.6032C12.0169 13.6032 9.89204 15.7281 9.89204 18.3399C9.89204 20.9517 12.0169 23.0766 14.6287 23.0766C16.5063 23.0766 18.2086 21.9661 18.9656 20.2475C19.0531 20.0489 18.963 19.817 18.7644 19.7295Z" fill="#51EC93"/>
<path d="M16.8567 20.0109C17.0737 20.0109 17.2496 19.8351 17.2496 19.6181V17.1184C17.2496 16.9015 17.0737 16.7256 16.8567 16.7256C16.6398 16.7256 16.4639 16.9015 16.4639 17.1184V17.9326H15.5198V17.1184C15.5198 16.9015 15.3439 16.7256 15.1269 16.7256C14.9099 16.7256 14.7341 16.9015 14.7341 17.1184V19.6181C14.7341 19.8351 14.9099 20.0109 15.1269 20.0109C15.3439 20.0109 15.5198 19.8351 15.5198 19.6181V18.7183H16.4639V19.6181C16.4639 19.8351 16.6398 20.0109 16.8567 20.0109Z" fill="#51EC93"/>
<path d="M14.1452 17.7113C14.1452 17.1364 13.661 16.6688 13.0659 16.6688H12.4017C12.4016 16.6688 12.4014 16.6688 12.4013 16.6688C12.4012 16.6688 12.401 16.6688 12.4009 16.6688C12.1839 16.6688 12.0081 16.8446 12.0081 17.0616V19.5613C12.0081 19.7782 12.1839 19.9541 12.4009 19.9541C12.6179 19.9541 12.7937 19.7782 12.7937 19.5613V19.0667L13.4575 19.8208C13.5351 19.9091 13.6435 19.9541 13.7525 19.9541C13.8447 19.9541 13.9373 19.9219 14.0119 19.8562C14.1747 19.7128 14.1906 19.4646 14.0473 19.3017L13.4908 18.6695C13.8752 18.5098 14.1452 18.1404 14.1452 17.7113ZM13.0659 17.4545C13.2223 17.4545 13.3595 17.5745 13.3595 17.7113C13.3595 17.848 13.2223 17.9681 13.0659 17.9681C13.0011 17.9681 12.9004 17.9684 12.797 17.9689C12.7965 17.8694 12.7962 17.7732 12.7962 17.7113C12.7962 17.6579 12.796 17.5592 12.7957 17.4545H13.0659V17.4545Z" fill="#51EC93"/>
<path d="M20.5612 9.57504H19.9986V9.01241C19.9986 8.79544 19.8227 8.61957 19.6057 8.61957C19.3888 8.61957 19.2129 8.79544 19.2129 9.01241V9.57504H18.6273C18.4103 9.57504 18.2344 9.75092 18.2344 9.96789C18.2344 10.1849 18.4103 10.3607 18.6273 10.3607H19.2129V10.9463C19.2129 11.1633 19.3888 11.3392 19.6057 11.3392C19.8227 11.3392 19.9986 11.1633 19.9986 10.9463V10.3607H20.5612C20.7782 10.3607 20.954 10.1849 20.954 9.96789C20.954 9.75092 20.7782 9.57504 20.5612 9.57504Z" fill="#51EC93"/>
</g>
<defs>
<clipPath id="clip0_1004:3">
<rect width="20.1136" height="20.1136" fill="white" transform="translate(5.11363 5.11365)"/>
</clipPath>
</defs>
</svg>
