<svg width="32" height="32" viewBox="0 0 32 32" fill="none" xmlns="http://www.w3.org/2000/svg">
<circle cx="16" cy="16" r="15.5" stroke="#FB4167"/>
<g clip-path="url(#clip0_1004:0)">
<path d="M15.6506 16.5044C15.6715 16.5044 15.6923 16.5044 15.7173 16.5044C15.7256 16.5044 15.7339 16.5044 15.7423 16.5044C15.7548 16.5044 15.7714 16.5044 15.7839 16.5044C17.0043 16.4835 17.9915 16.0545 18.7204 15.234C20.324 13.4263 20.0574 10.3274 20.0282 10.0317C19.9241 7.81163 18.8745 6.74951 18.0081 6.25385C17.3625 5.88315 16.6086 5.68323 15.7673 5.66656H15.7381C15.7339 5.66656 15.7256 5.66656 15.7214 5.66656H15.6964C15.2341 5.66656 14.3261 5.74154 13.4556 6.23719C12.5809 6.73285 11.5146 7.79497 11.4105 10.0317C11.3813 10.3274 11.1147 13.4263 12.7183 15.234C13.4431 16.0545 14.4302 16.4835 15.6506 16.5044ZM12.5226 10.1358C12.5226 10.1233 12.5267 10.1108 12.5267 10.1025C12.6642 7.11605 14.7843 6.79533 15.6923 6.79533H15.7089C15.7173 6.79533 15.7298 6.79533 15.7423 6.79533C16.8669 6.82032 18.7787 7.27849 18.9078 10.1025C18.9078 10.115 18.9078 10.1275 18.912 10.1358C18.9161 10.165 19.2077 12.9973 17.8832 14.4884C17.3583 15.0799 16.6586 15.3714 15.7381 15.3798C15.7298 15.3798 15.7256 15.3798 15.7173 15.3798C15.7089 15.3798 15.7048 15.3798 15.6964 15.3798C14.7801 15.3714 14.0762 15.0799 13.5555 14.4884C12.2352 13.0056 12.5184 10.1608 12.5226 10.1358Z" fill="#FB4167"/>
<path d="M24.2767 21.6442C24.2767 21.64 24.2767 21.6359 24.2767 21.6317C24.2767 21.5984 24.2725 21.565 24.2725 21.5276C24.2475 20.7029 24.1934 18.7744 22.3857 18.1579C22.3732 18.1538 22.3565 18.1496 22.344 18.1454C20.4656 17.6664 18.9036 16.5835 18.8869 16.571C18.6329 16.3919 18.283 16.4544 18.1039 16.7084C17.9248 16.9625 17.9873 17.3124 18.2413 17.4915C18.3122 17.5415 19.9699 18.6952 22.0442 19.2284C23.0146 19.5741 23.1229 20.6112 23.1521 21.5609C23.1521 21.5984 23.1521 21.6317 23.1563 21.665C23.1604 22.0399 23.1354 22.6188 23.0688 22.952C22.394 23.3352 19.7491 24.6598 15.7256 24.6598C11.7187 24.6598 9.05713 23.3311 8.37821 22.9479C8.31157 22.6147 8.28241 22.0357 8.29074 21.6608C8.29074 21.6275 8.29491 21.5942 8.29491 21.5567C8.32406 20.6071 8.43236 19.5699 9.40284 19.2242C11.4771 18.6911 13.1348 17.5332 13.2056 17.4873C13.4597 17.3082 13.5222 16.9584 13.3431 16.7043C13.164 16.4502 12.8141 16.3877 12.56 16.5668C12.5434 16.5793 10.9898 17.6623 9.10295 18.1413C9.08629 18.1454 9.07379 18.1496 9.0613 18.1538C7.25361 18.7744 7.19946 20.7029 7.17447 21.5234C7.17447 21.5609 7.17447 21.5942 7.17031 21.6275C7.17031 21.6317 7.17031 21.6359 7.17031 21.64C7.16614 21.8566 7.16198 22.9687 7.38273 23.5268C7.42438 23.6351 7.49936 23.7268 7.59932 23.7892C7.72428 23.8726 10.719 25.7802 15.7297 25.7802C20.7405 25.7802 23.7352 23.8684 23.8602 23.7892C23.956 23.7268 24.0351 23.6351 24.0768 23.5268C24.285 22.9729 24.2809 21.8608 24.2767 21.6442Z" fill="#FB4167"/>
</g>
<defs>
<clipPath id="clip0_1004:0">
<rect width="20.1136" height="20.1136" fill="white" transform="translate(5.66667 5.66656)"/>
</clipPath>
</defs>
</svg>
